<svg width="12" height="12" viewBox="0 0 12 12" fill="none" xmlns="http://www.w3.org/2000/svg">
<path d="M5.86221 0C2.63007 0 0 2.62966 0 5.86221C0 9.09476 2.63007 11.7244 5.86221 11.7244C9.09476 11.7244 11.7248 9.09517 11.7248 5.86221C11.7248 2.62966 9.09476 0 5.86221 0ZM11.2179 5.86221C11.2179 5.96483 11.2088 6.06497 11.2026 6.16634C11.165 6.07117 11.1079 5.94703 11.0942 5.89366C11.0743 5.81255 10.9531 5.52993 10.9531 5.52993C10.9531 5.52993 10.8319 5.36855 10.7512 5.328C10.6709 5.28745 10.6101 5.18648 10.4686 5.10621C10.327 5.0251 10.267 4.98497 10.1462 4.98497C10.0246 4.98497 9.90414 4.82317 9.76221 4.74248C9.62069 4.66221 9.60083 4.70234 9.60083 4.70234C9.60083 4.70234 9.76221 4.94441 9.76221 5.00483C9.76221 5.06524 9.94345 5.16621 10.1259 5.12566C10.1259 5.12566 10.2468 5.34786 10.3072 5.40828C10.3676 5.46869 10.2869 5.52952 10.1661 5.61021C10.0448 5.69048 10.0651 5.67062 10.0039 5.73103C9.94345 5.79145 9.74193 5.89324 9.6811 5.93297C9.62069 5.9731 9.37862 6.09435 9.25779 5.9731C9.19862 5.91476 9.21683 5.79186 9.1771 5.71076C9.13655 5.63007 8.71283 5.00441 8.5109 4.72221C8.47572 4.67255 8.38966 4.51945 8.32966 4.48014C8.26924 4.43917 8.47117 4.43917 8.47117 4.43917C8.47117 4.43917 8.47117 4.29766 8.4509 4.1971C8.43021 4.09614 8.47117 3.95503 8.47117 3.95503C8.47117 3.95503 8.26924 4.07586 8.208 4.11641C8.148 4.15697 8.08717 4.03614 8.0069 3.93476C7.92621 3.83421 7.8451 3.71255 7.82524 3.61159C7.80497 3.51103 7.92621 3.47048 7.92621 3.47048L8.10745 3.36993C8.10745 3.36993 8.32965 3.32979 8.47117 3.34966C8.61228 3.36993 8.83407 3.39021 8.83407 3.39021C8.83407 3.39021 8.89448 3.24869 8.81379 3.18828C8.73352 3.12786 8.55103 3.0269 8.47035 3.04717C8.39007 3.06703 8.51048 2.94621 8.61103 2.86552L8.38759 2.82497C8.38759 2.82497 8.18441 2.92593 8.12359 2.94621C8.06317 2.96607 7.95807 3.00662 7.87697 3.10759C7.79669 3.20855 7.90924 3.34966 7.82855 3.39021C7.74828 3.43076 7.69366 3.45062 7.63283 3.47048C7.57241 3.49076 7.38041 3.47048 7.38041 3.47048C7.17186 3.47048 7.30552 3.66083 7.35972 3.72828L7.19834 3.53131L7.07876 3.2491C7.07876 3.2491 6.90662 3.12828 6.82593 3.08814C6.74524 3.04759 6.49655 2.90648 6.49655 2.90648L6.51393 3.08814L6.74772 3.32483L6.76841 3.33021L6.89007 3.49159L6.62152 3.51186V3.35214C6.36828 3.2909 6.43448 3.228 6.40593 3.20855C6.34593 3.16841 6.20566 3.06703 6.20566 3.06703C6.20566 3.06703 5.96814 3.10759 5.90731 3.12786C5.84648 3.14814 5.82952 3.20855 5.7091 3.24869C5.58745 3.28924 5.53283 3.34966 5.49269 3.41007C5.45255 3.47048 5.32097 3.65214 5.2411 3.73283C5.16 3.81393 5.01021 3.79324 4.94979 3.79324C4.88897 3.79324 4.59765 3.71255 4.59765 3.71255V3.37034C4.59765 3.37034 4.63697 3.17834 4.6171 3.11793L4.79379 3.08814L5.08883 3.02731L5.17531 2.96648L5.29945 2.8051C5.29945 2.8051 5.16 2.70414 5.26055 2.56303C5.30897 2.49517 5.48317 2.48234 5.56386 2.42193C5.64414 2.36152 5.76621 2.32097 5.76621 2.32097C5.76621 2.32097 5.90772 2.20014 6.04883 2.05862C6.04883 2.05862 6.14979 1.99779 6.27062 1.95724C6.27062 1.95724 6.61407 2.26014 6.6749 2.26014C6.73572 2.26014 6.95752 2.11903 6.95752 2.11903C6.95752 2.11903 7.01793 1.93779 6.99807 1.87697C6.97779 1.81655 6.87683 1.61462 6.87683 1.61462C6.87683 1.61462 6.81641 1.71559 6.756 1.79628C6.69559 1.87697 6.65503 1.97793 6.65503 1.97793C6.65503 1.97793 6.37241 1.95848 6.35255 1.89807C6.33186 1.83724 6.29214 1.73752 6.27145 1.67752C6.252 1.61669 6.09021 1.61876 5.96979 1.65931C5.84814 1.69986 5.98924 1.44166 5.98924 1.44166C5.98924 1.44166 6.1109 1.28938 6.19117 1.28938C6.27145 1.28938 6.45393 1.18593 6.53379 1.16607C6.6149 1.14579 6.85779 1.05352 6.95793 1.05352C7.0589 1.05352 7.18014 1.09697 7.24097 1.09697C7.30179 1.09697 7.54345 1.09697 7.54345 1.09697L7.96676 1.06303C7.96676 1.06303 8.33048 1.19752 8.20883 1.27862C8.20883 1.27862 8.35076 1.36593 8.41117 1.42634C8.46786 1.48345 8.61435 1.37379 8.69835 1.32703C10.2083 2.27462 11.2179 3.9509 11.2179 5.86221ZM1.58855 2.70414C1.58855 2.78483 1.47848 2.80428 1.58855 3.00703C1.72924 3.26938 1.60841 3.39062 1.60841 3.39062C1.60841 3.39062 1.26497 3.63269 1.20455 3.67324C1.14414 3.71379 0.982759 3.93559 1.08331 3.87476C1.18428 3.81434 1.3051 3.75393 1.20455 3.91531C1.10359 4.0771 0.921931 4.33903 0.881793 4.44041C0.841655 4.54179 0.639724 4.78345 0.639724 4.90469C0.639724 5.02593 0.559034 5.26841 0.57931 5.36938C0.592965 5.43972 0.548276 5.64703 0.513103 5.73228C0.540414 4.59766 0.922345 3.552 1.55297 2.69669C1.57366 2.69876 1.58855 2.70414 1.58855 2.70414ZM2.23697 1.93034C2.73062 1.47476 3.3091 1.11145 3.94717 0.865655C3.88428 0.946345 3.80814 1.0291 3.80814 1.0291C3.80814 1.0291 3.66703 1.02869 3.40428 1.31172C3.14234 1.59434 3.20276 1.51366 3.14234 1.59393C3.08193 1.67421 3.10179 1.6949 2.96028 1.79628C2.81959 1.89683 2.75876 2.01807 2.75876 2.01807L2.53655 2.09876L2.35531 2.01807C2.35531 2.01807 2.1931 2.0789 2.21338 1.99779C2.21917 1.97628 2.22786 1.95393 2.23697 1.93034ZM4.656 2.40124L4.57572 2.28041L4.656 2.09876L4.85048 2.17655V1.81614L5.03628 1.71559L5.19062 1.93738L5.42814 2.20014L5.27048 2.32097L4.85007 2.40166V2.18772L4.656 2.40124ZM7.28028 4.29848C7.32745 4.26124 7.48179 4.3589 7.48179 4.3589C7.48179 4.3589 7.98621 4.45986 8.0669 4.52028C8.148 4.5811 8.2891 4.62165 8.32966 4.68248C8.37021 4.7429 8.5109 4.92455 8.53076 4.98497C8.55145 5.04538 8.65241 5.268 8.67269 5.34828C8.69297 5.42897 8.75338 5.6309 8.81379 5.73186C8.87421 5.83324 9.21766 6.27683 9.33848 6.47876L9.70262 6.41834C9.70262 6.41834 9.66166 6.59959 9.62152 6.66041C9.58138 6.72083 9.46014 6.88221 9.39972 6.9629C9.3389 7.04359 9.25862 7.16483 9.13738 7.26538C9.01655 7.36593 9.01573 7.4669 8.95572 7.548C8.89531 7.62869 8.81421 7.81034 8.81421 7.81034C8.81421 7.81034 8.85476 8.21421 8.87462 8.2949C8.89448 8.37559 8.73352 8.59738 8.73352 8.59738L8.55145 8.77945L8.30814 9.10179L8.328 9.40428C8.328 9.40428 8.14428 9.54621 8.0429 9.62648C7.94276 9.70676 7.95848 9.76759 7.87779 9.84869C7.79752 9.92897 7.48179 10.0705 7.4011 10.0908C7.32041 10.111 6.87517 10.1714 6.87517 10.1714V9.99021L6.86607 9.78828C6.86607 9.78828 6.80483 9.54621 6.744 9.46552C6.68317 9.38483 6.70965 9.26317 6.60869 9.16262C6.50772 9.06166 6.47048 8.98138 6.45021 8.92014C6.42993 8.85972 6.47214 8.67848 6.47214 8.67848C6.47214 8.67848 6.55366 8.45628 6.59379 8.37559C6.63434 8.2949 6.59421 8.17407 6.55366 8.09297C6.5131 8.01186 6.49366 7.80993 6.49366 7.74993C6.49366 7.68952 6.33145 7.58814 6.27103 7.52772C6.21062 7.46731 6.2309 7.38621 6.2309 7.30634C6.2309 7.22483 6.17048 7.04359 6.19034 6.90207C6.21062 6.76097 6.0091 6.86152 5.88786 6.90207C5.76662 6.94262 5.68634 6.86152 5.68634 6.74028C5.68634 6.61903 5.46455 6.72041 5.32303 6.80069C5.1811 6.88138 5.02014 6.88138 4.85793 6.94221C4.69697 7.00262 4.61669 6.88179 4.61669 6.88179C4.61669 6.88179 4.47476 6.76097 4.37462 6.70014C4.27324 6.63972 4.17228 6.5189 4.09117 6.41793C4.0109 6.31655 3.80855 6.01366 3.7891 5.89324C3.76883 5.77159 3.7891 5.69048 3.7891 5.54938C3.7891 5.40828 3.7891 5.32759 3.80897 5.22662C3.82924 5.12566 3.88966 5.00441 3.95048 4.90345C4.0109 4.80248 4.2331 4.68165 4.2931 4.6411C4.35352 4.60097 4.49503 4.48014 4.49503 4.39903C4.49503 4.31835 4.57614 4.27821 4.61586 4.1971C4.65683 4.11641 4.79793 3.9149 4.97959 3.99559C4.97959 3.99559 5.14055 3.97572 5.20097 3.95545C5.26138 3.93517 5.42276 3.87517 5.50262 3.83462C5.58331 3.79407 5.78441 3.77503 5.78441 3.77503C5.78441 3.77503 5.94331 3.83834 6.00372 3.83834C6.06414 3.83834 6.2611 3.80317 6.2611 3.80317C6.2611 3.80317 6.35214 4.09572 6.35214 4.15655C6.35214 4.21738 6.41255 4.27738 6.51393 4.31793C6.61366 4.3589 7.07834 4.46028 7.28028 4.29848ZM9.60124 8.25476C9.60124 8.31517 9.58097 8.47697 9.56069 8.55766C9.53959 8.63834 9.49986 8.77986 9.48 8.85972C9.45972 8.94083 9.35876 9.10221 9.29876 9.14276C9.23835 9.18331 9.13697 9.30455 9.07697 9.32441C9.01655 9.34469 8.97559 9.1829 8.99586 9.10221C9.01655 9.02152 9.1171 8.79972 9.1171 8.79972C9.1171 8.79972 9.13738 8.6789 9.15724 8.59779C9.17793 8.51752 9.42 8.41655 9.42 8.41655L9.58179 8.11365C9.58097 8.11324 9.60124 8.19476 9.60124 8.25476ZM0.64469 7.05228C0.670759 7.0589 0.708 7.07793 0.760552 7.12469C0.83669 7.1909 0.881793 7.22483 0.982759 7.26579C1.08331 7.30676 1.12386 7.36634 1.2451 7.42717C1.36634 7.488 1.32621 7.44786 1.48717 7.6291C1.64897 7.81035 1.62869 7.81034 1.66883 7.91172C1.70897 8.0131 1.76979 8.11324 1.81034 8.17448C1.8509 8.2349 1.97172 8.27503 2.03214 8.31559C2.09255 8.35614 2.19352 8.39628 2.25393 8.39628C2.31476 8.39628 2.49641 8.57793 2.59738 8.59779C2.69834 8.61848 2.69834 8.82041 2.69834 8.82041L2.59738 9.10262L2.51628 9.4051L2.59738 9.64717C2.59738 9.64717 2.47572 9.74855 2.39586 9.74855C2.32138 9.74855 2.29614 9.79572 2.21462 9.77338C1.44497 9.05462 0.886759 8.11448 0.64469 7.05228Z" fill="#66676B"/>
</svg>
